<svg width="89.21" height="65.79" viewBox="0 0 135 114" fill="none" xmlns="http://www.w3.org/2000/svg">
	<g clip-path="url(#clip0_15_2)">
	<path d="M43.3941 86.8378L47.993 88.1965L49.9968 81.4137L45.4485 80.07C44.038 79.6312 31.7744 75.3925 35.6087 62.4137C37.6054 55.6547 35.8025 50.5018 32.7086 46.8076C37.3134 45.3876 41.627 42.0417 43.6238 35.2827C47.458 22.304 60.0562 25.41 61.4281 25.7932L66.027 27.1518L68.0308 20.369L63.4227 19.0077C55.4672 16.6722 39.1709 16.504 34.4259 32.5655C31.6206 42.0613 23.7133 40.4259 22.158 40.0033L20.2186 46.8051C20.5958 46.9165 29.3824 49.6376 26.4108 59.6965C21.6659 75.758 35.4374 84.4725 43.3941 86.8378ZM114.201 67.1949C113.824 67.0835 105.037 64.3624 108.009 54.3036C112.754 38.242 98.9822 29.5275 91.0254 27.1622L86.4265 25.8036L84.4227 32.5863L88.9711 33.93C90.3815 34.3688 102.645 38.6075 98.8109 51.5863C96.8141 58.3453 98.617 63.4982 101.711 67.1924C97.1062 68.6124 92.7925 71.9583 90.7958 78.7173C86.9615 91.696 74.3633 88.59 72.9914 88.2069L68.3925 86.8482L66.3887 93.631L70.9968 94.9923C78.9524 97.3278 95.2487 97.4961 99.9936 81.4345C102.799 71.9387 110.706 73.5741 112.262 73.9967L114.201 67.1949Z" fill="#A9A9A9" fill-opacity="0.63"/>
	</g>
	<g clip-path="url(#clip1_15_2)">
	<path d="M62.5882 47.3404C63.3509 47.5657 64.1296 47.2006 64.3295 46.524L66.4289 39.4175C66.6288 38.7409 66.1735 38.0112 65.4108 37.7859C64.6482 37.5606 63.8694 37.9257 63.6695 38.6024L61.5701 45.7088C61.3702 46.3854 61.8255 47.1151 62.5882 47.3404ZM84.6346 59.1771L80.0356 57.8184C80.4354 56.4652 79.5248 55.0057 77.9995 54.5551L58.9906 48.9394C57.4653 48.4888 55.9078 49.2191 55.508 50.5724L53.0169 59.0049C52.9827 59.1205 52.9572 59.235 52.9443 59.3495C52.8548 59.5818 52.7768 59.8176 52.7055 60.059C50.9305 66.0671 54.983 72.5621 61.7549 74.5626C67.8906 76.3753 74.1527 73.8813 76.5991 68.9292L81.3398 70.3297C82.8651 70.7803 84.4226 70.05 84.8224 68.6968L86.6707 62.4404C87.0705 61.0871 86.1599 59.6277 84.6346 59.1771ZM74.7048 65.7078L74.6626 65.6953C74.6131 65.9617 74.5521 66.2246 74.4737 66.4898C73.0976 71.1481 67.7286 73.6656 62.4781 72.1145C57.2277 70.5634 54.0887 65.5324 55.4648 60.8742C55.5432 60.6089 55.6349 60.3551 55.738 60.1046L55.6959 60.0921L58.2674 51.3876L77.2763 57.0033L74.7048 65.7078ZM82.1434 67.6096L77.8511 66.3415L79.619 60.3572L83.9113 61.6252L82.1434 67.6096ZM75.5418 51.1672C76.3045 51.3926 77.0832 51.0274 77.2831 50.3508L79.3825 43.2443C79.5824 42.5677 79.1271 41.838 78.3645 41.6127C77.6018 41.3874 76.8231 41.7525 76.6232 42.4292L74.5238 49.5356C74.3239 50.2122 74.7792 50.9419 75.5418 51.1672ZM69.0267 49.2425C69.7893 49.4678 70.5681 49.1027 70.768 48.426L72.8674 41.3196C73.0673 40.643 72.612 39.9133 71.8493 39.688C71.0867 39.4626 70.3079 39.8278 70.108 40.5044L68.0086 47.6109C67.8087 48.2875 68.264 49.0172 69.0267 49.2425Z" fill="#A9A9A9" fill-opacity="0.63"/>
	<g clip-path="url(#clip2_15_2)">
	<path d="M60.8694 71.8428L64.9573 73.0505C65.0557 73.0795 65.1624 73.0684 65.2578 73.0191C65.3531 72.9698 65.4309 72.8856 65.4767 72.7821L67.9995 67.0661L68.4627 67.203L68.7299 66.2986L68.1649 66.1317L67.9206 64.3648C67.909 64.2797 67.8755 64.201 67.824 64.1378C67.7725 64.0745 67.705 64.0292 67.629 64.0068L63.5411 62.7991C63.3862 62.7534 63.2161 62.8083 63.1014 62.9411L61.9365 64.2917L61.3716 64.1248L61.1044 65.0292L61.5676 65.166L60.5793 71.3353C60.5615 71.4471 60.581 71.56 60.6342 71.6532C60.6875 71.7464 60.771 71.8137 60.8694 71.8428ZM66.5976 68.1269L62.168 66.8183L62.3933 65.4099L67.1734 66.8221L66.5976 68.1269ZM61.491 71.0431L61.7164 69.6348L65.4458 70.7365L64.8697 72.0413L61.491 71.0431ZM63.5266 63.7781L67.1092 64.8365L67.2509 65.8617L62.8506 64.5617L63.5266 63.7781Z" fill="#A9A9A9" fill-opacity="0.63"/>
	</g>
	</g>
	<defs>
	<clipPath id="clip0_15_2">
	<rect width="115.09" height="84.8704" fill="white" transform="translate(24.0454) rotate(16.4584)"/>
	</clipPath>
	<clipPath id="clip1_15_2">
	<rect width="40.9209" height="36.3057" fill="white" transform="translate(54.8716 34.6723) rotate(16.4584)"/>
	</clipPath>
	<clipPath id="clip2_15_2">
	<rect width="10.2302" height="11.3161" fill="white" transform="translate(60.6796 61.9538) rotate(16.4584)"/>
	</clipPath>
	</defs>
</svg>
